<?xml version="1.0" encoding="UTF-8"?>
<svg id="Layer_2" data-name="Layer 2" xmlns="http://www.w3.org/2000/svg" xmlns:xlink="http://www.w3.org/1999/xlink" viewBox="0 0 712.67 250">
  <defs>
    <style>
      .cls-1 {
        fill: url(#radial-gradient);
      }

      .cls-2 {
        fill: #212121;
      }
    </style>
    <radialGradient id="radial-gradient" cx="182.04" cy="164.83" fx="182.04" fy="164.83" r="228.33" gradientTransform="translate(-3.22 246.78) rotate(-90)" gradientUnits="userSpaceOnUse">
      <stop offset="0" stop-color="#0000fe"/>
      <stop offset=".24" stop-color="#0047fe"/>
      <stop offset=".51" stop-color="#0095fe"/>
      <stop offset=".74" stop-color="#00cdfe"/>
      <stop offset=".91" stop-color="#00f0fe"/>
      <stop offset="1" stop-color="#00fefe"/>
    </radialGradient>
  </defs>
  <g id="narwhalpaywht-logo">
    <g id="narwhalpaywht-logo-2" data-name="narwhalpaywht-logo">
      <path class="cls-1" d="M218.66,72.99c12.45,35.24-26.07,40.07-5.56,73.01,.42,.68-.21,1.53-.99,1.31-14.9-4.32-22.17,16.43-37.96,31.27-6.1,5.74-13.47,10.59-23.04,12.77-1.71,.39-1.83,2.78-.19,3.36,10.87,3.87,21.2,1.32,30.16-2.45,18.97-7.97,31.77-21.39,30.51,9.19-.13,3.17,3.87,4.65,5.84,2.16,16.36-20.74,26.13-46.93,26.13-75.39,0-5.5-.36-10.91-1.07-16.21-1.47-11.09-5.14-21.78-11.01-31.3-3.15-5.08-6.23-8.73-9.24-10.63-1.94-1.23-4.35,.74-3.58,2.91ZM212.68,.11l-36.72,19.07c-2.1,1.09-4.65,.72-6.4-.88-2.92-2.67-6.43-4.74-10.36-6.01-11.79-3.8-24.36-5.86-37.42-5.86C54.52,6.43,0,60.96,0,128.22c0,6.56,.51,13.01,1.52,19.29,9.25,58.09,59.57,102.49,120.26,102.49,28.01,0,53.81-9.46,74.39-25.35,.57-.44,.67-1.1,.48-1.65,0-.01,0-.02-.01-.03l-.18-.37c-.37-.57-1.07-.9-1.82-.48-81.73,45.31-179.58-8.86-53.04-87.77,.4-.25,.79-.49,1.19-.73,.02-.02,.04-.03,.06-.03,2.25-1.34,4.5-2.48,6.9-3.16,.55-.16,1.11-.3,1.68-.4,1.42-.26,2.52,1.22,1.84,2.49-.09,.18-.75,.77-1.64,1.62-1.82,1.73-4.59,4.56-5.24,7.13-1.43,5.65,.26,10.03,.51,13.8,.11,1.76,2.01,2.8,3.54,1.91,3.53-2.05,6.63-4.34,9.28-6.88,12.32-11.78,15.05-28.85,7.04-51.85-.77-2.2-.61-4.62,.39-6.72,1.51-3.15,3.7-8.6,5.79-15.06,.56-1.74-.9-3.45-2.71-3.19-5,.73-9.96,.39-14.71-1.62-1.13-.48-.95-2.13,.26-2.38,6.06-1.23,12.85-5.02,18.93-8.4,1.75-.97,2.96-2.7,3.29-4.68,1-6.17,1.38-12.17,.67-17.19v-.19c0-2.78-.42-5.48-1.2-8.04-.71-2.29,.19-4.78,2.17-6.13L213.58,1.63c.92-.63,.09-2.03-.9-1.52Zm-69.07,51.73c-.27,2.17-2.02,3.92-4.2,4.2-3.19,.4-5.87-2.28-5.47-5.47,.28-2.18,2.03-3.93,4.2-4.21,3.19-.4,5.87,2.28,5.47,5.48Z"/>
      <g>
        <g>
          <path class="cls-2" d="M355.9,45.08v24.42l.2,18.41-31.22-42.83h-14.47V114.01h16.05v-24.03l-.2-18.61,31.22,42.64h14.47V45.08h-16.05Z"/>
          <path class="cls-2" d="M421.68,65.36l-.98,5.71c-1.97-2.16-4.34-3.82-7.09-4.97-2.76-1.15-5.78-1.72-9.06-1.72-4.53,0-8.55,1.06-12.07,3.2-3.51,2.13-6.25,5.12-8.22,8.96-1.97,3.84-2.95,8.22-2.95,13.14s.98,9.31,2.95,13.15c1.97,3.84,4.71,6.83,8.22,8.96,3.52,2.14,7.54,3.2,12.07,3.2,6.63,0,12.01-2.26,16.15-6.79l.98,5.81h13.39v-48.65h-13.39Zm-5.12,33.24c-2.16,2.26-4.96,3.39-8.37,3.39s-6.19-1.14-8.32-3.44c-2.13-2.3-3.2-5.26-3.2-8.87s1.07-6.56,3.2-8.86,4.91-3.45,8.32-3.45,6.21,1.14,8.37,3.4c2.17,2.27,3.25,5.24,3.25,8.91s-1.08,6.65-3.25,8.92Z"/>
          <path class="cls-2" d="M481.06,65.51c-2.23-.82-4.46-1.23-6.7-1.23-5.51,0-9.84,2.39-12.99,7.19l-1.19-6.11h-13.49v48.65h15.46v-23.64c0-4.07,.96-7.15,2.86-9.25,1.9-2.1,4.5-3.15,7.78-3.15,1.31,0,2.56,.19,3.74,.59,1.18,.39,2.46,1.02,3.84,1.87l6.5-11.33c-1.64-1.57-3.58-2.77-5.81-3.59Z"/>
          <path class="cls-2" d="M551.37,65.36l-4.23,14.97-3.74,15.07-11.13-30.04h-10.24l-11.13,29.94-3.74-14.97-4.34-14.97h-16.34l16.25,48.65h14.77l4.03-11.92,5.62-15.66,5.61,15.66,4.04,11.92h14.67l16.25-48.65h-16.35Z"/>
          <path class="cls-2" d="M618.28,70.28c-3.51-4-8.25-6-14.23-6s-11.12,2.13-14.86,6.4v-25.6h-15.47V114.01h15.47v-25.61c0-3.28,.93-5.94,2.8-7.97,1.87-2.04,4.32-3.06,7.34-3.06,2.76,0,4.9,.89,6.45,2.66,1.54,1.78,2.31,4.24,2.31,7.39v26.59h15.46v-27.48c0-6.82-1.75-12.24-5.27-16.25Z"/>
          <path class="cls-2" d="M672.2,65.36l-.99,5.71c-1.97-2.16-4.33-3.82-7.09-4.97-2.75-1.15-5.77-1.72-9.06-1.72-4.53,0-8.55,1.06-12.06,3.2-3.51,2.13-6.25,5.12-8.22,8.96-1.97,3.84-2.96,8.22-2.96,13.14s.99,9.31,2.96,13.15c1.97,3.84,4.71,6.83,8.22,8.96,3.51,2.14,7.53,3.2,12.06,3.2,6.63,0,12.02-2.26,16.15-6.79l.99,5.81h13.39v-48.65h-13.39Zm-5.12,33.24c-2.17,2.26-4.96,3.39-8.37,3.39s-6.19-1.14-8.32-3.44c-2.14-2.3-3.2-5.26-3.2-8.87s1.06-6.56,3.2-8.86c2.13-2.3,4.9-3.45,8.32-3.45s6.2,1.14,8.37,3.4c2.16,2.27,3.25,5.24,3.25,8.91s-1.09,6.65-3.25,8.92Z"/>
          <path class="cls-2" d="M697.21,45.08V114.01h15.46V45.08h-15.46Z"/>
        </g>
        <g>
          <path class="cls-2" d="M366.54,150.77c-2.17-3.74-5.24-6.61-9.21-8.61s-8.62-3-13.94-3h-32.98v68.93h16.15v-19.5h16.83c5.32,0,9.97-1,13.94-3,3.97-2.01,7.04-4.88,9.21-8.62,2.16-3.74,3.25-8.11,3.25-13.1s-1.09-9.35-3.25-13.1Zm-15.81,20.88c-2,1.91-4.71,2.86-8.12,2.86h-16.15v-21.08h16.15c3.41,0,6.12,.96,8.12,2.86,2,1.9,3,4.46,3,7.68s-1,5.78-3,7.68Z"/>
          <path class="cls-2" d="M413.9,159.44l-.98,5.71c-1.97-2.16-4.34-3.82-7.09-4.97-2.76-1.15-5.78-1.72-9.06-1.72-4.53,0-8.55,1.06-12.07,3.2-3.51,2.13-6.25,5.12-8.22,8.96-1.97,3.84-2.95,8.22-2.95,13.14s.98,9.31,2.95,13.15c1.97,3.84,4.71,6.83,8.22,8.96,3.52,2.13,7.54,3.2,12.07,3.2,6.63,0,12.01-2.26,16.15-6.79l.98,5.81h13.39v-48.65h-13.39Zm-5.12,33.24c-2.17,2.26-4.96,3.39-8.37,3.39s-6.19-1.15-8.32-3.44c-2.13-2.3-3.2-5.26-3.2-8.87s1.07-6.56,3.2-8.86c2.13-2.3,4.91-3.45,8.32-3.45s6.2,1.14,8.37,3.4c2.17,2.27,3.25,5.24,3.25,8.91s-1.08,6.65-3.25,8.92Z"/>
          <path class="cls-2" d="M472.79,159.44l-6.21,15.36-5.71,15.86-5.31-15.86-5.62-15.36h-16.64l18.91,47.96-9.46,21.76h16.45l30.33-69.72h-16.74Z"/>
        </g>
      </g>
    </g>
  </g>
</svg>